<?xml version="1.0" encoding="UTF-8" standalone="no"?>
<svg
   width="192"
   height="192"
   fill="#000000"
   viewBox="0 0 256 256"
   version="1.1"
   id="svg858"
   sodipodi:docname="logo2.svg"
   inkscape:version="1.1 (c68e22c387, 2021-05-23)"
   xmlns:inkscape="http://www.inkscape.org/namespaces/inkscape"
   xmlns:sodipodi="http://sodipodi.sourceforge.net/DTD/sodipodi-0.dtd"
   xmlns="http://www.w3.org/2000/svg"
   xmlns:svg="http://www.w3.org/2000/svg">
  <defs
     id="defs862" />
  <sodipodi:namedview
     id="namedview860"
     pagecolor="#ffffff"
     bordercolor="#666666"
     borderopacity="1.0"
     inkscape:pageshadow="2"
     inkscape:pageopacity="0.0"
     inkscape:pagecheckerboard="0"
     showgrid="false"
     inkscape:zoom="4.2291667"
     inkscape:cx="96.118227"
     inkscape:cy="96"
     inkscape:window-width="1920"
     inkscape:window-height="1021"
     inkscape:window-x="-8"
     inkscape:window-y="-8"
     inkscape:window-maximized="1"
     inkscape:current-layer="svg858" />
  <rect
     width="256"
     height="256"
     fill="#fdef0d"
     id="rect844" />
  <line
     x1="96"
     y1="16"
     x2="96"
     y2="48"
     fill="none"
     stroke="#000000"
     stroke-linecap="round"
     stroke-linejoin="round"
     stroke-width="16"
     id="line846" />
  <line
     x1="128"
     y1="16"
     x2="128"
     y2="48"
     fill="none"
     stroke="#000000"
     stroke-linecap="round"
     stroke-linejoin="round"
     stroke-width="16"
     id="line848" />
  <line
     x1="160"
     y1="16"
     x2="160"
     y2="48"
     fill="none"
     stroke="#000000"
     stroke-linecap="round"
     stroke-linejoin="round"
     stroke-width="16"
     id="line850" />
  <path
     d="M48,80H208a8,8,0,0,1,8,8v96a23.9,23.9,0,0,1-24,24H64a23.9,23.9,0,0,1-24-24V88A8,8,0,0,1,48,80Z"
     fill="#0d6efd"
     stroke="#000000"
     stroke-linecap="round"
     stroke-linejoin="round"
     stroke-width="16"
     id="path852" />
  <line
     x1="248"
     y1="96"
     x2="216"
     y2="120"
     fill="none"
     stroke="#000000"
     stroke-linecap="round"
     stroke-linejoin="round"
     stroke-width="16"
     id="line854" />
  <line
     x1="8"
     y1="96"
     x2="40"
     y2="120"
     fill="none"
     stroke="#000000"
     stroke-linecap="round"
     stroke-linejoin="round"
     stroke-width="16"
     id="line856" />
  <path
     style="fill:none;stroke:#000000;stroke-width:16;stroke-linecap:round;stroke-linejoin:round;stroke-opacity:1"
     d="m 71.711,155.1133 c 31.39027,34.90323 71.82048,46.18788 107.50739,0"
     id="path1202"
     sodipodi:nodetypes="cc" />
</svg>
